<svg id="visual" viewBox="0 0 675 900" width="675" height="900" xmlns="http://www.w3.org/2000/svg" xmlns:xlink="http://www.w3.org/1999/xlink" version="1.1"><rect x="0" y="0" width="675" height="900" fill="#004040"></rect><defs><linearGradient id="grad1_0" x1="0%" y1="0%" x2="100%" y2="100%"><stop offset="30%" stop-color="#069a98" stop-opacity="1"></stop><stop offset="70%" stop-color="#069a98" stop-opacity="1"></stop></linearGradient></defs><defs><linearGradient id="grad1_1" x1="0%" y1="0%" x2="100%" y2="100%"><stop offset="30%" stop-color="#069a98" stop-opacity="1"></stop><stop offset="70%" stop-color="#016b6b" stop-opacity="1"></stop></linearGradient></defs><defs><linearGradient id="grad1_2" x1="0%" y1="0%" x2="100%" y2="100%"><stop offset="30%" stop-color="#004040" stop-opacity="1"></stop><stop offset="70%" stop-color="#016b6b" stop-opacity="1"></stop></linearGradient></defs><defs><linearGradient id="grad2_0" x1="0%" y1="0%" x2="100%" y2="100%"><stop offset="30%" stop-color="#069a98" stop-opacity="1"></stop><stop offset="70%" stop-color="#069a98" stop-opacity="1"></stop></linearGradient></defs><defs><linearGradient id="grad2_1" x1="0%" y1="0%" x2="100%" y2="100%"><stop offset="30%" stop-color="#016b6b" stop-opacity="1"></stop><stop offset="70%" stop-color="#069a98" stop-opacity="1"></stop></linearGradient></defs><defs><linearGradient id="grad2_2" x1="0%" y1="0%" x2="100%" y2="100%"><stop offset="30%" stop-color="#016b6b" stop-opacity="1"></stop><stop offset="70%" stop-color="#004040" stop-opacity="1"></stop></linearGradient></defs><g transform="translate(675, 0)"><path d="M0 418C-94.3 444.4 -188.7 470.7 -251.5 435.6C-314.3 400.5 -345.6 303.9 -382.8 221C-420 138.1 -463.1 69.1 -506.2 0L0 0Z" fill="#005555"></path><path d="M0 278.7C-62.9 296.2 -125.8 313.8 -167.7 290.4C-209.5 267 -230.4 202.6 -255.2 147.3C-280 92.1 -308.7 46 -337.5 0L0 0Z" fill="#038281"></path><path d="M0 139.3C-31.4 148.1 -62.9 156.9 -83.8 145.2C-104.8 133.5 -115.2 101.3 -127.6 73.7C-140 46 -154.4 23 -168.7 0L0 0Z" fill="#069a98"></path></g><g transform="translate(0, 900)"><path d="M0 -506.2C74.1 -463.2 148.2 -420.2 217 -375.9C285.8 -331.5 349.5 -285.9 386.2 -223C423 -160.1 433 -80.1 443 0L0 0Z" fill="#005555"></path><path d="M0 -337.5C49.4 -308.8 98.8 -280.1 144.7 -250.6C190.6 -221 233 -190.6 257.5 -148.7C282 -106.8 288.7 -53.4 295.3 0L0 0Z" fill="#038281"></path><path d="M0 -168.7C24.7 -154.4 49.4 -140.1 72.3 -125.3C95.3 -110.5 116.5 -95.3 128.7 -74.3C141 -53.4 144.3 -26.7 147.7 0L0 0Z" fill="#069a98"></path></g></svg>