<svg id="visual" viewBox="0 0 3000 3000" width="3000" height="3000" xmlns="http://www.w3.org/2000/svg" xmlns:xlink="http://www.w3.org/1999/xlink" version="1.1"><rect x="0" y="0" width="3000" height="3000" fill="#004040"></rect><defs><linearGradient id="grad1_0" x1="0%" y1="100%" x2="100%" y2="0%"><stop offset="30%" stop-color="#069a98" stop-opacity="1"></stop><stop offset="70%" stop-color="#069a98" stop-opacity="1"></stop></linearGradient></defs><defs><linearGradient id="grad1_1" x1="0%" y1="100%" x2="100%" y2="0%"><stop offset="30%" stop-color="#069a98" stop-opacity="1"></stop><stop offset="70%" stop-color="#016b6b" stop-opacity="1"></stop></linearGradient></defs><defs><linearGradient id="grad1_2" x1="0%" y1="100%" x2="100%" y2="0%"><stop offset="30%" stop-color="#004040" stop-opacity="1"></stop><stop offset="70%" stop-color="#016b6b" stop-opacity="1"></stop></linearGradient></defs><defs><linearGradient id="grad2_0" x1="0%" y1="100%" x2="100%" y2="0%"><stop offset="30%" stop-color="#069a98" stop-opacity="1"></stop><stop offset="70%" stop-color="#069a98" stop-opacity="1"></stop></linearGradient></defs><defs><linearGradient id="grad2_1" x1="0%" y1="100%" x2="100%" y2="0%"><stop offset="30%" stop-color="#016b6b" stop-opacity="1"></stop><stop offset="70%" stop-color="#069a98" stop-opacity="1"></stop></linearGradient></defs><defs><linearGradient id="grad2_2" x1="0%" y1="100%" x2="100%" y2="0%"><stop offset="30%" stop-color="#016b6b" stop-opacity="1"></stop><stop offset="70%" stop-color="#004040" stop-opacity="1"></stop></linearGradient></defs><g transform="translate(3000, 3000)"><path d="M-875 0C-867.6 -158.7 -860.3 -317.5 -795 -459C-729.8 -600.5 -606.6 -724.8 -464.5 -804.5C-322.4 -884.3 -161.2 -919.4 0 -954.6L0 0Z" fill="#005555"></path><path d="M-583.3 0C-578.4 -105.8 -573.5 -211.7 -530 -306C-486.5 -400.3 -404.4 -483.2 -309.7 -536.4C-214.9 -589.5 -107.5 -613 0 -636.4L0 0Z" fill="#038281"></path><path d="M-291.7 0C-289.2 -52.9 -286.8 -105.8 -265 -153C-243.3 -200.2 -202.2 -241.6 -154.8 -268.2C-107.5 -294.8 -53.7 -306.5 0 -318.2L0 0Z" fill="#069a98"></path></g><g transform="translate(0, 0)"><path d="M925 0C914.8 168.2 904.5 336.5 826.7 477.3C748.9 618.1 603.5 731.5 454.5 787.2C305.5 842.9 152.7 841 0 839L0 0Z" fill="#005555"></path><path d="M616.7 0C609.8 112.2 603 224.3 551.1 318.2C499.3 412.1 402.4 487.7 303 524.8C203.6 562 101.8 560.6 0 559.3L0 0Z" fill="#038281"></path><path d="M308.3 0C304.9 56.1 301.5 112.2 275.6 159.1C249.6 206 201.2 243.8 151.5 262.4C101.8 281 50.9 280.3 0 279.7L0 0Z" fill="#069a98"></path></g></svg>