<svg id="visual" viewBox="0 0 3000 3000" width="3000" height="3000" xmlns="http://www.w3.org/2000/svg" xmlns:xlink="http://www.w3.org/1999/xlink" version="1.1"><rect x="0" y="0" width="3000" height="3000" fill="#004040"></rect><defs><linearGradient id="grad1_0" x1="0%" y1="0%" x2="100%" y2="100%"><stop offset="30%" stop-color="#069a98" stop-opacity="1"></stop><stop offset="70%" stop-color="#069a98" stop-opacity="1"></stop></linearGradient></defs><defs><linearGradient id="grad1_1" x1="0%" y1="0%" x2="100%" y2="100%"><stop offset="30%" stop-color="#069a98" stop-opacity="1"></stop><stop offset="70%" stop-color="#016b6b" stop-opacity="1"></stop></linearGradient></defs><defs><linearGradient id="grad1_2" x1="0%" y1="0%" x2="100%" y2="100%"><stop offset="30%" stop-color="#004040" stop-opacity="1"></stop><stop offset="70%" stop-color="#016b6b" stop-opacity="1"></stop></linearGradient></defs><defs><linearGradient id="grad2_0" x1="0%" y1="0%" x2="100%" y2="100%"><stop offset="30%" stop-color="#069a98" stop-opacity="1"></stop><stop offset="70%" stop-color="#069a98" stop-opacity="1"></stop></linearGradient></defs><defs><linearGradient id="grad2_1" x1="0%" y1="0%" x2="100%" y2="100%"><stop offset="30%" stop-color="#016b6b" stop-opacity="1"></stop><stop offset="70%" stop-color="#069a98" stop-opacity="1"></stop></linearGradient></defs><defs><linearGradient id="grad2_2" x1="0%" y1="0%" x2="100%" y2="100%"><stop offset="30%" stop-color="#016b6b" stop-opacity="1"></stop><stop offset="70%" stop-color="#004040" stop-opacity="1"></stop></linearGradient></defs><g transform="translate(3000, 0)"><path d="M0 1769C-379.6 1806.8 -759.2 1844.5 -954.6 1653.4C-1150 1462.3 -1161.1 1042.2 -1261.8 728.5C-1362.5 414.8 -1552.7 207.4 -1743 0L0 0Z" fill="#005555"></path><path d="M0 1179.3C-253.1 1204.5 -506.1 1229.7 -636.4 1102.3C-766.6 974.8 -774.1 694.8 -841.2 485.7C-908.3 276.5 -1035.2 138.3 -1162 0L0 0Z" fill="#038281"></path><path d="M0 589.7C-126.5 602.3 -253.1 614.8 -318.2 551.1C-383.3 487.4 -387 347.4 -420.6 242.8C-454.2 138.3 -517.6 69.1 -581 0L0 0Z" fill="#069a98"></path></g><g transform="translate(0, 3000)"><path d="M0 -1660C237.9 -1569.5 475.7 -1478.9 798.5 -1383C1121.3 -1287.2 1529 -1186 1653.4 -954.6C1777.8 -723.2 1618.9 -361.6 1460 0L0 0Z" fill="#005555"></path><path d="M0 -1106.7C158.6 -1046.3 317.1 -985.9 532.3 -922C747.5 -858.1 1019.3 -790.7 1102.3 -636.4C1185.2 -482.1 1079.3 -241.1 973.3 0L0 0Z" fill="#038281"></path><path d="M0 -553.3C79.3 -523.2 158.6 -493 266.2 -461C373.8 -429.1 509.7 -395.3 551.1 -318.2C592.6 -241.1 539.6 -120.5 486.7 0L0 0Z" fill="#069a98"></path></g></svg>