<svg version="1.1" id="Layer_1" xmlns:x="ns_extend;" xmlns:i="ns_ai;" xmlns:graph="ns_graphs;" xmlns="http://www.w3.org/2000/svg" xmlns:xlink="http://www.w3.org/1999/xlink" x="0px" y="0px" viewBox="0 0 340.4 50" style="enable-background:new 0 0 340.4 50;" xml:space="preserve">
 <metadata>
  <sfw xmlns="ns_sfw;">
   <slices>
   </slices>
   <sliceSourceBounds bottomLeftOrigin="true" height="50" width="340.4" x="-150.6" y="0">
   </sliceSourceBounds>
  </sfw>
 </metadata>
 <g>
  <path d="M137.8,17.1c-8.6-0.4-15.9,6.3-16.3,15c0,0.5,0,1,0,1.5c0,9.8,7.2,16.4,17.7,16.4c2.9,0,5.7-0.5,8.3-1.6L152,41l-0.6-0.3&#xA;&#x9;&#x9;c-3.5,1.9-7.5,3-11.5,3c-5.4,0-10-2.7-10.6-7.4h23.8v-2.2C153.2,23.2,146.6,17.1,137.8,17.1 M129.4,30.4c0.2-4.3,3.8-7.6,8-7.4&#xA;&#x9;&#x9;c0,0,0,0,0,0c4.9,0,7.9,2.9,7.9,7.4H129.4z M300.1,17.1c-8.6-0.4-15.9,6.3-16.3,15c0,0.5,0,1,0,1.5c0,9.8,7.2,16.4,17.7,16.4&#xA;&#x9;&#x9;c2.9,0,5.7-0.5,8.3-1.6l4.5-7.4l-0.6-0.3c-3.5,1.9-7.5,3-11.5,3c-5.4,0-10-2.7-10.6-7.4h23.8C316.4,24,309.8,17.1,300.1,17.1&#xA;&#x9;&#x9; M291.6,30.4c0.2-4.3,3.8-7.6,8-7.4c0,0,0,0,0,0c4.9,0,7.9,2.9,7.9,7.4L291.6,30.4z M191,17.1c-8.6-0.4-15.9,6.3-16.3,15&#xA;&#x9;&#x9;c0,0.5,0,1,0,1.5c0,9.8,7.2,16.4,17.7,16.4c2.9,0,5.7-0.5,8.3-1.6l4.4-7.4l-0.6-0.3c-3.5,1.9-7.5,3-11.5,3c-5.4,0-10-2.7-10.6-7.4&#xA;&#x9;&#x9;h23.8C207.3,24,200.7,17.1,191,17.1 M182.5,30.4c0.2-4.3,3.8-7.6,8-7.4c0,0,0,0,0,0c4.9,0,7.9,2.9,7.9,7.4L182.5,30.4z M29.6,24.9&#xA;&#x9;&#x9;v-0.1c4.7-1.1,8-5.3,8-10.1C37.6,6.2,30.5,3,23.5,3H0v0.7l2.4,2c2.8,2.3,3.2,2.8,3.2,4.9v38.6h16.6c8.7,0,17.4-3.1,17.4-13.2&#xA;&#x9;&#x9;C39.7,30.3,35.4,25.4,29.6,24.9 M13.8,10.1h6.8c4.6,0,6,0.6,7.4,2c1.1,1,1.6,2.5,1.5,4c0,1.5-0.5,2.8-1.6,3.9&#xA;&#x9;&#x9;c-1.4,1.3-3.2,1.9-6.6,1.9h-7.5L13.8,10.1z M21.3,42.2h-7.5V28.9h7.9c6.6,0,9.8,1.7,9.8,6.5C31.4,41.4,25.5,42.2,21.3,42.2&#xA;&#x9;&#x9; M55.1,7.3c0.2,2.8-1.9,5.2-4.7,5.3c-2.8,0.2-5.2-1.9-5.3-4.7s1.9-5.2,4.7-5.3c0.1,0,0.2,0,0.3,0c2.7-0.1,4.9,1.9,5.1,4.5&#xA;&#x9;&#x9;C55.1,7.2,55.1,7.2,55.1,7.3 M42,17.9h12v31.3h-7.8V24.6c0-2.6-0.1-3-3-5.2l-1.2-1L42,17.9z M104.1,1.7l2.5,1.6&#xA;&#x9;&#x9;c2.2,1.4,2.6,2.1,2.6,4.1v14.5h-0.2c-2.6-3.2-6.5-5-10.6-4.8c-8.9,0-15.1,7.2-15.1,16.4S89,49.9,98.7,49.9&#xA;&#x9;&#x9;c4.3,0.2,8.4-1.8,10.7-5.4h0.1l0.8,4.7h6.6V1.1h-12.8L104.1,1.7z M100.2,42.9c-5.2,0.1-9.5-4-9.6-9.2s4-9.5,9.2-9.6&#xA;&#x9;&#x9;c5.2-0.1,9.5,4,9.6,9.2c0,0.1,0,0.1,0,0.2c0.2,5-3.7,9.2-8.8,9.4C100.5,42.9,100.4,42.9,100.2,42.9 M266.1,1.7l1.1,0.7&#xA;&#x9;&#x9;c3.8,2.4,4.2,3.1,4.2,7.1v12.4h-0.2c-2.6-3.2-6.5-5-10.6-4.8c-8.9,0-15.1,7.2-15.1,16.4S251.3,50,260.9,50&#xA;&#x9;&#x9;c4.3,0.2,8.4-1.8,10.7-5.4h0.1l0.8,4.7h6.6V1.1h-13.1L266.1,1.7z M262.5,42.9c-5.2,0.1-9.5-4-9.6-9.2c-0.1-5.2,4-9.5,9.2-9.6&#xA;&#x9;&#x9;c5.2-0.1,9.5,4,9.6,9.2c0,0.1,0,0.1,0,0.2c0.2,5-3.7,9.2-8.7,9.4C262.7,42.9,262.6,42.9,262.5,42.9 M340.4,17.5v7.6&#xA;&#x9;&#x9;c-1.2-0.3-2.5-0.5-3.8-0.6c-4.3-0.3-8.1,3-8.4,7.3c0,0.2,0,0.4,0,0.6v16.8h-7.8V26.1c0-3.9-0.2-4.5-3.4-6.5l-2-1.3v-0.3h13.2v5h0.1&#xA;&#x9;&#x9;c1.7-3.6,5.3-5.8,9.2-5.7C338.6,17.1,339.5,17.3,340.4,17.5 M167,17.8h7.2v6.7H167v24.8h-7.8V27.1c0-2.6-0.5-3.2-3.6-5.7l-4-3.2&#xA;&#x9;&#x9;v-0.5h7.6v-5.7c0-8.5,5.5-13.9,17.5-11.5l1.8,6.6l-0.4,0.3C171.9,5,167,6.6,167,12V17.8z M241,29.4v19.8h-7.8V31.8&#xA;&#x9;&#x9;c0-3.4-0.9-7.6-6.3-7.6c-5.1,0-7.2,3.8-7.2,8v17.1h-7.8V26.1c0-3.9-0.2-4.5-3.4-6.5l-1.9-1.3v-0.3h12.8v4.8h0.1&#xA;&#x9;&#x9;c2.2-3.4,5.9-5.5,10-5.5C236.8,17.1,241.1,22.2,241,29.4 M80.8,42.9l0.3,0.2c0,0-3.9,6.2-3.9,6.2C70.9,51,63.7,49.2,63.7,39V26.3&#xA;&#x9;&#x9;c0-2-0.3-1.9-4.7-5.5l-2.8-2.5v-0.4h7.6l2.9-9.1h5v9.1h8.4v6.6h-8.4v14.2C71.5,44.4,75.4,44.5,80.8,42.9">
  </path>
 </g>
</svg>